<svg width="176" height="32" viewBox="0 0 176 32" fill="none" xmlns="http://www.w3.org/2000/svg">
<path d="M93.2722 27.1572L95.0029 22.1999H103.011L104.742 27.1572H108.702L100.958 5.71459H97.1149L89.3709 27.1572H93.2722ZM98.5522 12.1093C98.7576 11.5226 98.9335 10.8773 99.0215 10.4666C99.0802 10.9066 99.2855 11.5519 99.4615 12.1093L101.926 19.0319H96.1175L98.5522 12.1093Z" fill="white"/>
<path d="M116.158 27.5386C118.358 27.5386 120.236 26.5706 121.116 24.8986L121.35 27.1572H124.636V5.33325H121.086V14.5146C120.177 13.0773 118.388 12.2266 116.364 12.2266C111.993 12.2266 109.353 15.4533 109.353 19.9706C109.353 24.4586 111.964 27.5386 116.158 27.5386ZM116.95 24.2532C114.457 24.2532 112.932 22.4346 112.932 19.8533C112.932 17.2719 114.457 15.4239 116.95 15.4239C119.444 15.4239 121.057 17.2426 121.057 19.8533C121.057 22.4639 119.444 24.2532 116.95 24.2532Z" fill="white"/>
<path d="M131.944 27.1572V18.9439C131.944 16.5973 133.322 15.4826 135.024 15.4826C136.725 15.4826 137.81 16.5679 137.81 18.5919V27.1572H141.389V18.9439C141.389 16.5679 142.709 15.4533 144.44 15.4533C146.141 15.4533 147.256 16.5386 147.256 18.6213V27.1572H150.805V17.6826C150.805 14.3386 148.869 12.2266 145.349 12.2266C143.149 12.2266 141.448 13.3119 140.714 14.9839C139.952 13.3119 138.426 12.2266 136.226 12.2266C134.144 12.2266 132.677 13.1653 131.944 14.3679L131.65 12.6666H128.365V27.1572H131.944Z" fill="white"/>
<path d="M156.107 9.76258C157.281 9.76258 158.249 8.79458 158.249 7.59192C158.249 6.38925 157.281 5.45059 156.107 5.45059C154.875 5.45059 153.907 6.38925 153.907 7.59192C153.907 8.79458 154.875 9.76258 156.107 9.76258ZM154.318 27.1572H157.897V12.6666H154.318V27.1572Z" fill="white"/>
<path d="M165.173 27.1572V19.3546C165.173 17.0079 166.522 15.4826 168.722 15.4826C170.57 15.4826 171.773 16.6559 171.773 19.0906V27.1572H175.351V18.2399C175.351 14.4853 173.474 12.2266 169.837 12.2266C167.871 12.2266 166.111 13.0773 165.202 14.5439L164.909 12.6666H161.594V27.1572H165.173Z" fill="white"/>
<path d="M0 8.42105C0 3.77023 3.77023 0 8.42105 0H23.5789C28.2298 0 32 3.77023 32 8.42105V23.5789C32 28.2298 28.2298 32 23.5789 32H8.42105C3.77023 32 0 28.2298 0 23.5789V8.42105Z" fill="#3C50E0"/>
<g filter="url(#filter0_d_506_10589)">
<path d="M8.42139 8.42127C8.42139 7.49111 9.17543 6.73706 10.1056 6.73706V6.73706C11.0358 6.73706 11.7898 7.49111 11.7898 8.42127V23.5792C11.7898 24.5093 11.0358 25.2634 10.1056 25.2634V25.2634C9.17543 25.2634 8.42139 24.5093 8.42139 23.5792V8.42127Z" fill="white"/>
<path d="M23.5787 8.42127C23.5787 7.49111 22.8247 6.73706 21.8946 6.73706V6.73706C20.9644 6.73706 20.2103 7.49111 20.2103 8.42127V23.5792C20.2103 24.5093 20.9644 25.2634 21.8946 25.2634V25.2634C22.8247 25.2634 23.5787 24.5093 23.5787 23.5792V8.42127Z" fill="white"/>
</g>
<defs>
<filter id="filter0_d_506_10589" x="4.42139" y="4.73706" width="23.1574" height="23.5263" filterUnits="userSpaceOnUse" color-interpolation-filters="sRGB">
<feFlood flood-opacity="0" result="BackgroundImageFix"/>
<feColorMatrix in="SourceAlpha" values="0 0 0 0 0 0 0 0 0 0 0 0 0 0 0 0 0 0 127 0" result="hardAlpha"/>
<feOffset dy="2"/>
<feGaussianBlur stdDeviation="2"/>
<feComposite in2="hardAlpha" operator="out"/>
<feColorMatrix values="0 0 0 0 0 0 0 0 0 0.235294 0 0 0 0 0.878431 0 0 0 0.8 0"/>
<feBlend mode="normal" in2="BackgroundImageFix" result="effect1_dropShadow_506_10589"/>
<feBlend mode="normal" in="SourceGraphic" in2="effect1_dropShadow_506_10589" result="shape"/>
</filter>
</defs>
</svg>
